<svg width="643" height="242" viewBox="0 0 643 242" fill="none" xmlns="http://www.w3.org/2000/svg">
<path d="M187.735 115.533L188.034 115.832V116.13L188.93 115.832C189.749 116.031 190.159 116.429 190.159 117.027H190.457L190.756 116.13C193.545 116.728 194.94 117.226 194.94 117.625L194.641 118.554L194.94 118.255H195.239L196.135 118.554V118.853C196.135 120.314 191.642 128.006 182.655 141.929L167.946 167.429L165.555 172.542C163.961 173.738 162.556 174.335 161.338 174.335C156.336 173.251 153.834 172.155 153.834 171.048C151.045 168.636 149.651 163.832 149.651 156.638C146.419 160.202 143.818 164.098 141.848 168.326C140.409 172.133 138.306 174.037 135.54 174.037C134.256 174.037 133.06 173.638 131.954 172.841L131.655 173.14H131.356C130.98 173.14 130.382 172.642 129.563 171.646C128.102 171.646 126.796 166.843 125.645 157.236C125.247 154.513 125.047 148.614 125.047 139.539L125.645 123.634C125.645 121.974 127.449 120.878 131.057 120.347C133.691 120.768 135.883 121.963 137.631 123.933L138.262 125.726V127.851L137.034 139.24V143.423L137.332 145.25L137.034 146.744L137.332 147.042L137.034 148.537V149.732L137.332 150.927L137.034 152.123V153.65L149.053 139.837C149.518 139.837 150.016 137.436 150.547 132.632L152.34 132.035L152.938 131.437L155.03 131.736H155.959L158.051 131.437L158.35 131.736V132.035L158.051 132.333L159.545 132.632H159.844L160.741 132.035H161.04L161.338 132.333L161.637 132.035H163.131L164.36 133.529C164.957 133.529 165.256 133.728 165.256 134.126L161.936 142.228L161.338 145.847V151.226L161.04 151.525L161.338 154.546H161.637C164.78 149.411 168.488 144.11 172.76 138.642C173.159 137.248 173.756 136.55 174.553 136.55L174.254 136.251V135.953C178.194 129.423 180.596 125.914 181.459 125.427C181.459 124.63 182.655 122.24 185.045 118.255C185.045 117.149 185.942 116.241 187.735 115.533ZM180.231 129.046V129.345L180.829 128.748V128.449L180.231 129.046ZM178.139 131.736V132.632H178.438V131.736H178.139ZM210.958 119.451C213.946 119.451 217.167 121.93 220.62 126.888C220.62 128.637 219.059 132.267 215.938 137.779L213.149 143.988H213.78L232.739 139.007C235.572 131.747 238.572 125.538 241.737 120.38L244.858 119.451C247.16 119.517 250.06 121.487 253.558 125.361V127.22C253.558 128.703 251.488 132.632 247.349 139.007C246.087 142.173 245.456 144.353 245.456 145.548L246.386 146.478V147.109L242.667 148.968C242.667 149.588 242.257 149.898 241.438 149.898V150.197L241.737 150.529V150.828C241.383 150.828 241.073 151.447 240.808 152.687C240.276 152.687 239.546 153.827 238.616 156.107H238.317L238.018 155.808H237.686C237.686 157.535 236.657 158.564 234.599 158.896L234.897 159.228V159.859C234.278 159.859 233.968 160.169 233.968 160.789H233.337L233.038 162.017L233.337 162.316V162.947H233.038L232.108 162.648V163.578H231.809L232.108 163.876V164.208C230.448 165.824 229.308 168.414 228.688 171.978C228.688 172.974 228.069 174.313 226.829 175.996H226.497L226.198 175.697H225.899L224.97 176.626C224.97 176.206 223.83 175.896 221.55 175.697L221.218 174.435L220.919 174.767H220.62C220 174.014 219.69 173.184 219.69 172.277C219.69 168.381 221.45 162.991 224.97 156.107L226.497 152.388H226.198L204.151 157.966C203.664 159.228 203.244 159.859 202.89 159.859L202.591 159.527H202.259C200.82 161.165 199.37 164.375 197.909 169.156L193.891 175.398H193.559V174.767L192.331 175.697L187.981 174.136C187.981 173.096 187.461 172.576 186.421 172.576V170.716C186.421 168.348 188.601 163.069 192.962 154.878L193.261 153.318C192.641 153.119 192.331 152.499 192.331 151.458V148.968C195.784 147.175 197.754 145.305 198.241 143.357L204.749 127.818L204.45 127.519V127.22L207.239 121.011L210.958 119.451ZM284.019 120.679C284.019 121.432 284.395 121.808 285.148 121.808V122.373H284.284V122.671C285.236 122.671 285.712 122.86 285.712 123.236V123.535H284.583C284.583 124.11 285.148 124.398 286.277 124.398V124.962H285.413V125.228H288.833L291.423 126.656L291.124 126.955V127.22C292.076 127.22 292.552 127.419 292.552 127.818C292.552 128.504 289.033 129.257 281.993 130.076C279.603 130.076 275.054 131.404 268.347 134.06L265.193 140.335H265.492C266.51 139.959 269.454 139.671 274.324 139.472L274.888 140.335L274.025 140.634V140.9C275.552 140.9 276.316 141.088 276.316 141.464L274.888 142.062V142.328H275.452L275.187 143.191C275.187 144.143 275.939 144.906 277.445 145.482V145.748L277.179 146.046V146.312C278.131 146.312 278.607 146.511 278.607 146.91V147.175C278.607 147.751 272.619 149.267 260.644 151.724C259.161 151.724 257.257 154.58 254.933 160.291L275.452 156.871V157.435H275.751L277.179 157.136C277.422 158.088 277.898 158.564 278.607 158.564V159.427C278.142 159.427 277.666 159.715 277.179 160.291H276.581V160.556H278.308V161.154H276.88L277.179 161.419V161.718L276.88 161.984C279.691 161.984 281.208 162.46 281.429 163.412L281.163 163.71C282.115 163.843 282.591 164.131 282.591 164.574C280.909 165.658 275.209 167.075 265.492 168.824C254.092 170.75 248.392 172.465 248.392 173.97C248.126 174.966 247.274 175.819 245.835 176.527H245.536L243.843 175.099H243.245L241.818 175.398C241.818 174.911 240.877 174.435 238.995 173.97L238.132 174.236L237.833 173.97V173.671L238.132 172.808H237.568L237.269 173.107H237.003L236.704 172.808V172.542C238.276 166.898 245.304 150.938 257.788 124.664C257.788 122.76 259.117 121.62 261.773 121.244L272.896 121.542L284.019 120.679ZM331.945 119.417H334.037C336.693 119.417 338.884 120.613 340.611 123.003V123.9L329.256 153.152C326.467 158.309 323.677 165.581 320.888 174.966L319.992 175.863H319.095L317.9 174.966L317.601 175.265H316.107L314.613 174.369L311.625 174.667L309.234 171.978V169.886C309.234 169.001 309.931 166.909 311.326 163.611L303.59 145.117L301.199 137.945H300.9L288.947 163.013C287.552 165.869 286.556 169.156 285.959 172.875L286.258 173.173V173.472C285.926 175.066 285.527 175.863 285.062 175.863H284.166L281.177 174.07H280.58L279.384 174.369L278.488 174.07L277.89 174.667L277.592 174.369H277.293L276.994 174.667L274.304 171.082V169.886C274.304 166.3 278.986 155.354 288.349 137.048L295.521 121.808C296.606 120.945 299.981 120.347 305.648 120.015C306.998 120.015 308.393 121.011 309.832 123.003V123.302C309.832 128.947 312.422 137.303 317.601 148.371C320.39 143.589 323.478 135.432 326.865 123.9C327.551 121.31 328.746 120.015 330.451 120.015C330.451 119.661 330.949 119.462 331.945 119.417ZM394.262 119.949H395.491C396.996 119.949 398.922 121.365 401.268 124.199V125.427C376.808 149.223 363.04 161.873 359.963 163.378C359.963 164.197 359.454 164.607 358.436 164.607C358.436 165.249 356.211 167.673 351.762 171.878C348.774 174.579 346.948 177.113 346.284 179.482L344.756 179.781C343.583 179.781 342.576 179.371 341.735 178.552L341.137 179.183C340.849 177.966 339.732 177.357 337.784 177.357L335.659 174.933V174.302C335.659 171.159 343.152 163.367 358.137 150.927C362.188 146.788 364.213 144.464 364.213 143.955C356.51 136.251 352.659 129.766 352.659 124.498V122.671C353.699 121.476 355.426 120.878 357.838 120.878H359.034C362.775 120.878 365.608 123.712 367.534 129.378C367.534 131.415 369.161 134.149 372.415 137.58C374.407 136.185 379.564 131.016 387.887 122.074C390.3 120.657 392.425 119.949 394.262 119.949ZM432.493 119.55H432.825C434.928 119.55 437.053 121.576 439.2 125.626L439.532 125.958V127.453C439.532 128.404 437.938 129.223 434.751 129.91V130.208C439.643 136.274 442.089 141.951 442.089 147.242V148.769C442.089 161.873 436.444 170.296 425.155 174.037C421.304 175.055 418.116 175.564 415.593 175.564H412.073C402.157 175.564 395.018 170.495 390.657 160.357C390.037 160.224 389.617 158.398 389.395 154.878V152.72C389.395 142.892 396.523 133.972 410.778 125.958C419.787 121.686 427.026 119.55 432.493 119.55ZM401.216 155.476V155.775C401.216 159.294 403.451 161.32 407.923 161.851H410.479C417.364 161.851 423.75 157.9 429.638 149.998C430.545 147.917 431.176 145.172 431.53 141.763C431.331 138.93 431.021 137.203 430.601 136.583L430.899 135.687C430.324 132.632 429.903 131.105 429.638 131.105C423.373 131.946 416.135 136.008 407.923 143.291C403.451 147.629 401.216 151.691 401.216 155.476ZM458.638 119.617H460.099C463.176 119.617 465.688 121.255 467.636 124.531L467.902 125.693C467.902 127.309 465.777 132.145 461.527 140.203C457.078 148.946 454.853 156.959 454.853 164.242V165.105C459.856 161.851 463.917 157.889 467.038 153.218C474.387 143.855 478.737 137.093 480.087 132.931L481.814 129.179C482.389 129.179 482.677 128.891 482.677 128.316L482.976 128.017H483.574V129.179H483.839C484.37 125.903 484.857 124.265 485.3 124.265H485.599V125.427H485.865V123.103H486.462V123.966C487.148 123.612 488.012 122.162 489.052 119.617H489.351C491.277 121.41 492.24 124.21 492.24 128.017C492.24 140.767 484.038 155.255 467.636 171.48C464.493 173.428 460.918 174.402 456.911 174.402C449.496 174.402 444.56 171.69 442.103 166.267L441.538 162.781V161.353C441.538 153.738 443.088 146.976 446.187 141.066L453.724 123.369C455.362 120.867 457 119.617 458.638 119.617ZM548.613 121.277H549.576C555.155 121.277 559.028 123.69 561.197 128.515C560.688 132.92 559.958 135.123 559.006 135.123H558.674C557.368 135.123 555.166 134.492 552.067 133.23L545.791 132.599C534.347 132.599 524.707 137.314 516.871 146.744C513.507 151.304 511.824 156.229 511.824 161.519C511.824 164.463 514.027 165.935 518.432 165.935C521.088 165.935 524.862 165.094 529.754 163.412V163.113H529.422L520.324 163.744C520.324 163.168 519.483 162.427 517.801 161.519L518.1 161.22V160.888H516.24V160.257L518.1 159.958V159.66L515.61 159.328V158.697H516.539V158.398H514.979V158.066L515.61 157.136C514.127 157.136 513.385 156.926 513.385 156.505C513.385 155.111 526.279 152.178 552.067 147.707C554.479 147.707 556.261 149.167 557.412 152.089L557.744 153.052C557.744 155.222 556.272 157.524 553.328 159.958C553.328 162.017 548.093 166.212 537.623 172.542C532.709 175.265 527.884 176.626 523.147 176.626H520.324C510.917 176.626 504.619 171.801 501.432 162.15L501.133 159.328V157.435C501.133 149.865 506.999 140.745 518.731 130.076C527.408 124.21 537.369 121.277 548.613 121.277ZM594.647 120.679C594.647 121.432 595.023 121.808 595.776 121.808V122.373H594.913V122.671C595.865 122.671 596.34 122.86 596.34 123.236V123.535H595.212C595.212 124.11 595.776 124.398 596.905 124.398V124.962H596.042V125.228H599.462L602.051 126.656L601.753 126.955V127.22C602.704 127.22 603.18 127.419 603.18 127.818C603.18 128.504 599.661 129.257 592.622 130.076C590.231 130.076 585.682 131.404 578.975 134.06L575.821 140.335H576.12C577.138 139.959 580.082 139.671 584.952 139.472L585.516 140.335L584.653 140.634V140.9C586.18 140.9 586.944 141.088 586.944 141.464L585.516 142.062V142.328H586.081L585.815 143.191C585.815 144.143 586.568 144.906 588.073 145.482V145.748L587.807 146.046V146.312C588.759 146.312 589.235 146.511 589.235 146.91V147.175C589.235 147.751 583.247 149.267 571.272 151.724C569.789 151.724 567.885 154.58 565.561 160.291L586.081 156.871V157.435H586.38L587.807 157.136C588.051 158.088 588.527 158.564 589.235 158.564V159.427C588.77 159.427 588.294 159.715 587.807 160.291H587.21V160.556H588.936V161.154H587.508L587.807 161.419V161.718L587.508 161.984C590.32 161.984 591.836 162.46 592.057 163.412L591.792 163.71C592.743 163.843 593.219 164.131 593.219 164.574C591.537 165.658 585.837 167.075 576.12 168.824C564.72 170.75 559.02 172.465 559.02 173.97C558.755 174.966 557.902 175.819 556.464 176.527H556.165L554.471 175.099H553.874L552.446 175.398C552.446 174.911 551.505 174.435 549.624 173.97L548.76 174.236L548.462 173.97V173.671L548.76 172.808H548.196L547.897 173.107H547.631L547.333 172.808V172.542C548.904 166.898 555.932 150.938 568.417 124.664C568.417 122.76 569.745 121.62 572.401 121.244L583.524 121.542L594.647 120.679ZM625.374 117.923L631.317 118.222H637.261C638.412 118.222 639.253 118.753 639.784 119.816L639.452 120.115C640.493 120.181 641.013 120.491 641.013 121.044V121.376H637.593V121.675H638.821V122.306H638.224L638.522 122.638L638.224 122.937V123.568L639.784 123.867V124.199L639.452 124.498V124.83C640.714 124.83 641.345 125.66 641.345 127.32C642.186 127.431 642.606 127.74 642.606 128.25V128.88L624.112 131.072C622.541 131.072 621.29 133.053 620.36 137.015C609.337 158.486 602.752 172.166 600.605 178.054C599.343 179.316 598.302 179.947 597.483 179.947L596.222 178.685C594.982 178.685 594.362 178.165 594.362 177.125L594.03 177.457H593.731C593.687 176.925 592.647 175.985 590.61 174.634L589.647 173.041C589.647 168.835 594.661 157.667 604.689 139.539L607.212 133.595L595.591 135.455C591.208 135.455 588.286 133.473 586.825 129.511L585.896 125.759V125.128C585.896 123.8 586.726 122.55 588.386 121.376H592.47C599.022 121.376 609.99 120.225 625.374 117.923ZM292.666 184.945C298 184.945 301.265 186.528 302.461 189.693C303.147 192.504 303.977 198.082 304.951 206.427L305.25 206.726C305.36 208.032 305.637 208.685 306.08 208.685L315.011 207.556V208.121H315.31L319.759 207.855V208.386L317.801 208.951V209.25H319.759L321.718 208.951V209.515C319.815 210.268 318.332 210.644 317.269 210.644V211.208L318.664 210.91C319.948 211.286 320.59 211.662 320.59 212.039L322.017 211.74C325.736 211.85 327.595 212.227 327.595 212.869L327.297 213.134L329.256 213.699V214.263C326.732 215.569 321.519 216.687 313.617 217.617L308.603 218.447C311.016 227.921 312.222 234.351 312.222 237.738V238.833L311.392 239.697H311.093C310.474 239.697 309.832 239.409 309.168 238.833V239.697H308.603V239.132L307.74 239.697L306.644 238.833L303.855 239.962L301.597 237.738C300.668 236.233 299.273 230.732 297.414 221.236H297.148C285.416 224.468 279.551 226.991 279.551 228.806C278.798 229.271 276.562 232.149 272.843 237.439C271.56 238.944 270.53 239.697 269.756 239.697L269.191 238.302L268.926 238.568H268.66C267.531 237.904 266.967 237.162 266.967 236.343L266.701 236.609H266.136V236.044C265.362 236.044 264.62 235.491 263.912 234.384C263.159 234.384 262.783 234.196 262.783 233.82V231.861C262.783 229.78 265.019 226.338 269.49 221.535C271.394 218.369 274.47 213.986 278.72 208.386L288.217 191.652L290.142 186.041C291.138 185.31 291.98 184.945 292.666 184.945ZM290.441 212.039V212.304C293.606 211.485 295.189 210.932 295.189 210.644L294.359 206.162C293.85 206.383 292.544 208.342 290.441 212.039ZM316.406 207.291H316.97V207.855H316.406V207.291ZM316.705 209.25V209.515H317.269V209.25H316.705ZM370.821 185.277H371.784C377.362 185.277 381.236 187.69 383.405 192.515C382.896 196.92 382.165 199.123 381.213 199.123H380.881C379.575 199.123 377.373 198.492 374.274 197.23L367.999 196.599C356.555 196.599 346.915 201.314 339.079 210.744C335.714 215.304 334.032 220.229 334.032 225.519C334.032 228.463 336.234 229.935 340.639 229.935C343.295 229.935 347.07 229.094 351.961 227.412V227.113H351.629L342.532 227.744C342.532 227.168 341.691 226.427 340.008 225.519L340.307 225.22V224.888H338.448V224.257L340.307 223.958V223.66L337.817 223.328V222.697H338.747V222.398H337.186V222.066L337.817 221.136C336.334 221.136 335.592 220.926 335.592 220.505C335.592 219.111 348.486 216.178 374.274 211.707C376.687 211.707 378.469 213.167 379.62 216.089L379.952 217.052C379.952 219.222 378.48 221.524 375.536 223.958C375.536 226.017 370.301 230.212 359.831 236.542C354.917 239.265 350.091 240.626 345.354 240.626H342.532C333.124 240.626 326.827 235.801 323.639 226.15L323.34 223.328V221.435C323.34 213.865 329.206 204.745 340.938 194.076C349.615 188.21 359.576 185.277 370.821 185.277ZM420.905 183.55H421.237C423.34 183.55 425.465 185.576 427.612 189.626L427.944 189.958V191.453C427.944 192.404 426.351 193.223 423.163 193.91V194.208C428.055 200.274 430.501 205.951 430.501 211.242V212.769C430.501 225.873 424.856 234.296 413.567 238.037C409.716 239.055 406.528 239.564 404.005 239.564H400.485C390.569 239.564 383.43 234.495 379.069 224.357C378.449 224.224 378.029 222.398 377.808 218.878V216.72C377.808 206.892 384.935 197.972 399.19 189.958C408.199 185.686 415.438 183.55 420.905 183.55ZM389.628 219.476V219.775C389.628 223.294 391.864 225.32 396.335 225.851H398.892C405.776 225.851 412.162 221.9 418.05 213.998C418.957 211.917 419.588 209.172 419.942 205.763C419.743 202.93 419.433 201.203 419.013 200.583L419.311 199.687C418.736 196.632 418.315 195.105 418.05 195.105C411.785 195.946 404.547 200.008 396.335 207.291C391.864 211.629 389.628 215.691 389.628 219.476ZM460.132 184.945C465.467 184.945 468.732 186.528 469.927 189.693C470.613 192.504 471.443 198.082 472.417 206.427L472.716 206.726C472.827 208.032 473.104 208.685 473.546 208.685L482.478 207.556V208.121H482.777L487.226 207.855V208.386L485.267 208.951V209.25H487.226L489.185 208.951V209.515C487.281 210.268 485.798 210.644 484.736 210.644V211.208L486.13 210.91C487.414 211.286 488.056 211.662 488.056 212.039L489.484 211.74C493.203 211.85 495.062 212.227 495.062 212.869L494.763 213.134L496.722 213.699V214.263C494.199 215.569 488.986 216.687 481.083 217.617L476.07 218.447C478.482 227.921 479.689 234.351 479.689 237.738V238.833L478.859 239.697H478.56C477.94 239.697 477.298 239.409 476.634 238.833V239.697H476.07V239.132L475.206 239.697L474.111 238.833L471.322 239.962L469.064 237.738C468.134 236.233 466.74 230.732 464.88 221.236H464.615C452.883 224.468 447.017 226.991 447.017 228.806C446.264 229.271 444.029 232.149 440.31 237.439C439.026 238.944 437.997 239.697 437.222 239.697L436.658 238.302L436.392 238.568H436.126C434.997 237.904 434.433 237.162 434.433 236.343L434.167 236.609H433.603V236.044C432.828 236.044 432.087 235.491 431.378 234.384C430.626 234.384 430.249 234.196 430.249 233.82V231.861C430.249 229.78 432.485 226.338 436.956 221.535C438.86 218.369 441.937 213.986 446.187 208.386L455.683 191.652L457.609 186.041C458.605 185.31 459.446 184.945 460.132 184.945ZM457.908 212.039V212.304C461.073 211.485 462.656 210.932 462.656 210.644L461.826 206.162C461.316 206.383 460.01 208.342 457.908 212.039ZM483.872 207.291H484.437V207.855H483.872V207.291ZM484.171 209.25V209.515H484.736V209.25H484.171ZM505.037 180.96H506.797C511.932 182.842 514.5 185.31 514.5 188.365C513.172 190.534 507.848 201.657 498.529 221.734L496.172 225.884L514.5 224.689L516.857 224.988H518.617V225.585H517.754V226.482H519.513V227.08L516.558 228.541L517.156 230.3H518.916L521.572 232.99C521.572 233.521 515.762 234.595 504.14 236.21C499.226 237.207 492.53 238.889 484.053 241.257H483.754C482.669 241.257 480.799 239.675 478.142 236.509V236.21L478.441 235.945L478.142 235.646V232.691C478.142 231.695 479.028 230.511 480.799 229.138C490.096 211.939 496.791 197.363 500.887 185.41L500.588 184.513C501.827 182.145 503.31 180.96 505.037 180.96Z" fill="#FD7819"/>
<path d="M77.0936 73.539C76.295 98.1607 86.7408 131.434 123.153 135.461L122.546 140.948C117.337 140.848 72.0395 139.293 48.2059 112.004C43.1291 106.095 39.2665 99.2346 36.8403 91.8165C34.4142 84.3984 33.4724 76.5696 34.0692 68.7808L7.10713 65.799L64.7372 6.20529L108.02 76.9592L77.0936 73.539Z" fill="#FD8F40"/>
</svg>
