<svg width="709" height="246" viewBox="0 0 709 246" fill="none" xmlns="http://www.w3.org/2000/svg">
<path d="M62.7341 119.311L63.0329 119.609V119.908L63.9294 119.609C64.7484 119.809 65.1579 120.207 65.1579 120.805H65.4568L65.7556 119.908C68.5446 120.506 69.9392 121.004 69.9392 121.402L69.6404 122.332L69.9392 122.033H70.238L71.1345 122.332V122.631C71.1345 124.092 66.641 131.784 57.654 145.707L42.945 171.207L40.5544 176.32C38.9607 177.516 37.5551 178.113 36.3376 178.113C31.335 177.029 28.8337 175.933 28.8337 174.826C26.0446 172.413 24.6501 167.61 24.6501 160.416C21.4183 163.98 18.8174 167.876 16.8474 172.104C15.4086 175.911 13.3057 177.814 10.5388 177.814C9.25493 177.814 8.05962 177.416 6.95285 176.619L6.65402 176.918H6.35519C5.97889 176.918 5.38124 176.42 4.56223 175.424C3.10129 175.424 1.7953 170.62 0.644257 161.014C0.245819 158.291 0.0466003 152.392 0.0466003 143.316L0.644257 127.412C0.644257 125.752 2.44829 124.656 6.05637 124.125C8.69048 124.546 10.8819 125.741 12.6306 127.711L13.2614 129.504V131.629L12.0329 143.018V147.201L12.3318 149.027L12.0329 150.521L12.3318 150.82L12.0329 152.314V153.51L12.3318 154.705L12.0329 155.9V157.428L24.0525 143.615C24.5173 143.615 25.0154 141.214 25.5466 136.41L27.3396 135.812L27.9372 135.215L30.029 135.514H30.9587L33.0505 135.215L33.3493 135.514V135.812L33.0505 136.111L34.5446 136.41H34.8435L35.74 135.812H36.0388L36.3376 136.111L36.6364 135.812H38.1306L39.3591 137.307C39.9568 137.307 40.2556 137.506 40.2556 137.904L36.9353 146.006L36.3376 149.625V155.004L36.0388 155.303L36.3376 158.324H36.6364C39.7797 153.189 43.4874 147.887 47.7595 142.42C48.1579 141.025 48.7556 140.328 49.5525 140.328L49.2536 140.029V139.73C53.1937 133.201 55.5954 129.692 56.4587 129.205C56.4587 128.408 57.654 126.018 60.0446 122.033C60.0446 120.926 60.9411 120.019 62.7341 119.311ZM55.2302 132.824V133.123L55.8279 132.525V132.227L55.2302 132.824ZM53.1384 135.514V136.41H53.4372V135.514H53.1384ZM85.9572 123.229C88.9454 123.229 92.1661 125.708 95.6193 130.666C95.6193 132.415 94.0587 136.045 90.9376 141.557L88.1486 147.766H88.7794L107.738 142.785C110.572 135.525 113.571 129.316 116.736 124.158L119.858 123.229C122.16 123.295 125.059 125.265 128.557 129.139V130.998C128.557 132.481 126.487 136.41 122.348 142.785C121.086 145.951 120.455 148.131 120.455 149.326L121.385 150.256V150.887L117.666 152.746C117.666 153.366 117.257 153.676 116.438 153.676V153.975L116.736 154.307V154.605C116.382 154.605 116.072 155.225 115.807 156.465C115.276 156.465 114.545 157.605 113.615 159.885H113.317L113.018 159.586H112.686C112.686 161.312 111.656 162.342 109.598 162.674L109.897 163.006V163.637C109.277 163.637 108.967 163.947 108.967 164.566H108.336L108.037 165.795L108.336 166.094V166.725H108.037L107.108 166.426V167.355H106.809L107.108 167.654V167.986C105.447 169.602 104.307 172.192 103.688 175.756C103.688 176.752 103.068 178.091 101.828 179.773H101.496L101.197 179.475H100.899L99.9689 180.404C99.9689 179.984 98.8289 179.674 96.549 179.475L96.2169 178.213L95.9181 178.545H95.6193C94.9995 177.792 94.6896 176.962 94.6896 176.055C94.6896 172.159 96.4493 166.769 99.9689 159.885L101.496 156.166H101.197L79.1505 161.744C78.6635 163.006 78.243 163.637 77.8888 163.637L77.59 163.305H77.2579C75.8191 164.943 74.3693 168.152 72.9083 172.934L68.8908 179.176H68.5587V178.545L67.3302 179.475L62.9806 177.914C62.9806 176.874 62.4604 176.354 61.4201 176.354V174.494C61.4201 172.126 63.6004 166.846 67.9611 158.656L68.2599 157.096C67.6401 156.896 67.3302 156.277 67.3302 155.236V152.746C70.7833 150.953 72.7534 149.083 73.2404 147.135L79.7482 131.596L79.4493 131.297V130.998L82.2384 124.789L85.9572 123.229ZM159.018 124.457C159.018 125.21 159.394 125.586 160.147 125.586V126.15H159.284V126.449C160.236 126.449 160.711 126.637 160.711 127.014V127.312H159.583C159.583 127.888 160.147 128.176 161.276 128.176V128.74H160.413V129.006H163.833L166.422 130.434L166.124 130.732V130.998C167.075 130.998 167.551 131.197 167.551 131.596C167.551 132.282 164.032 133.035 156.993 133.854C154.602 133.854 150.053 135.182 143.346 137.838L140.192 144.113H140.491C141.509 143.737 144.453 143.449 149.323 143.25L149.887 144.113L149.024 144.412V144.678C150.551 144.678 151.315 144.866 151.315 145.242L149.887 145.84V146.105H150.452L150.186 146.969C150.186 147.921 150.939 148.684 152.444 149.26V149.525L152.178 149.824V150.09C153.13 150.09 153.606 150.289 153.606 150.688V150.953C153.606 151.529 147.618 153.045 135.643 155.502C134.16 155.502 132.256 158.357 129.932 164.068L150.452 160.648V161.213H150.751L152.178 160.914C152.422 161.866 152.898 162.342 153.606 162.342V163.205C153.141 163.205 152.665 163.493 152.178 164.068H151.581V164.334H153.307V164.932H151.879L152.178 165.197V165.496L151.879 165.762C154.691 165.762 156.207 166.238 156.428 167.189L156.163 167.488C157.114 167.621 157.59 167.909 157.59 168.352C155.908 169.436 150.208 170.853 140.491 172.602C129.091 174.527 123.391 176.243 123.391 177.748C123.126 178.744 122.273 179.596 120.835 180.305H120.536L118.842 178.877H118.245L116.817 179.176C116.817 178.689 115.876 178.213 113.995 177.748L113.131 178.014L112.833 177.748V177.449L113.131 176.586H112.567L112.268 176.885H112.002L111.704 176.586V176.32C113.275 170.676 120.303 154.716 132.788 128.441C132.788 126.538 134.116 125.398 136.772 125.021L147.895 125.32L159.018 124.457ZM206.944 123.195H209.036C211.692 123.195 213.884 124.391 215.61 126.781V127.678L204.255 156.93C201.466 162.087 198.677 169.359 195.888 178.744L194.991 179.641H194.095L192.899 178.744L192.601 179.043H191.106L189.612 178.146L186.624 178.445L184.233 175.756V173.664C184.233 172.779 184.931 170.687 186.325 167.389L178.589 148.895L176.198 141.723H175.899L163.946 166.791C162.552 169.646 161.556 172.934 160.958 176.652L161.257 176.951V177.25C160.925 178.844 160.526 179.641 160.061 179.641H159.165L156.177 177.848H155.579L154.384 178.146L153.487 177.848L152.89 178.445L152.591 178.146H152.292L151.993 178.445L149.304 174.859V173.664C149.304 170.078 153.985 159.132 163.349 140.826L170.52 125.586C171.605 124.723 174.981 124.125 180.647 123.793C181.998 123.793 183.392 124.789 184.831 126.781V127.08C184.831 132.725 187.421 141.081 192.601 152.148C195.39 147.367 198.478 139.21 201.864 127.678C202.55 125.088 203.746 123.793 205.45 123.793C205.45 123.439 205.948 123.24 206.944 123.195ZM269.262 123.727H270.49C271.995 123.727 273.921 125.143 276.267 127.977V129.205C251.808 153.001 238.04 165.651 234.963 167.156C234.963 167.975 234.454 168.385 233.435 168.385C233.435 169.027 231.211 171.451 226.762 175.656C223.773 178.357 221.947 180.891 221.283 183.26L219.756 183.559C218.582 183.559 217.575 183.149 216.734 182.33L216.137 182.961C215.849 181.743 214.731 181.135 212.783 181.135L210.658 178.711V178.08C210.658 174.937 218.151 167.145 233.137 154.705C237.187 150.566 239.213 148.242 239.213 147.732C231.51 140.029 227.658 133.544 227.658 128.275V126.449C228.698 125.254 230.425 124.656 232.838 124.656H234.033C237.774 124.656 240.607 127.49 242.533 133.156C242.533 135.193 244.16 137.926 247.414 141.357C249.406 139.963 254.564 134.794 262.887 125.852C265.299 124.435 267.424 123.727 269.262 123.727ZM307.492 123.328H307.824C309.927 123.328 312.052 125.354 314.199 129.404L314.531 129.736V131.23C314.531 132.182 312.938 133.001 309.75 133.688V133.986C314.642 140.051 317.088 145.729 317.088 151.02V152.547C317.088 165.651 311.444 174.074 300.155 177.814C296.303 178.833 293.115 179.342 290.592 179.342H287.072C277.156 179.342 270.017 174.273 265.656 164.135C265.037 164.002 264.616 162.176 264.395 158.656V156.498C264.395 146.67 271.522 137.749 285.778 129.736C294.787 125.464 302.025 123.328 307.492 123.328ZM276.215 159.254V159.553C276.215 163.072 278.451 165.098 282.922 165.629H285.479C292.363 165.629 298.749 161.678 304.637 153.775C305.544 151.695 306.175 148.95 306.53 145.541C306.33 142.708 306.02 140.981 305.6 140.361L305.899 139.465C305.323 136.41 304.903 134.883 304.637 134.883C298.373 135.724 291.134 139.786 282.922 147.068C278.451 151.407 276.215 155.469 276.215 159.254ZM333.637 123.395H335.098C338.175 123.395 340.687 125.033 342.635 128.309L342.901 129.471C342.901 131.087 340.776 135.923 336.526 143.98C332.077 152.724 329.852 160.737 329.852 168.02V168.883C334.855 165.629 338.917 161.667 342.038 156.996C349.387 147.633 353.736 140.87 355.087 136.709L356.813 132.957C357.389 132.957 357.676 132.669 357.676 132.094L357.975 131.795H358.573V132.957H358.839C359.37 129.681 359.857 128.043 360.299 128.043H360.598V129.205H360.864V126.881H361.462V127.744C362.148 127.39 363.011 125.94 364.051 123.395H364.35C366.276 125.188 367.239 127.988 367.239 131.795C367.239 144.545 359.038 159.033 342.635 175.258C339.492 177.206 335.917 178.18 331.911 178.18C324.495 178.18 319.559 175.468 317.102 170.045L316.538 166.559V165.131C316.538 157.516 318.087 150.754 321.186 144.844L328.723 127.146C330.361 124.645 331.999 123.395 333.637 123.395ZM423.613 125.055H424.576C430.154 125.055 434.027 127.467 436.197 132.293C435.688 136.698 434.957 138.9 434.005 138.9H433.673C432.367 138.9 430.165 138.27 427.066 137.008L420.79 136.377C409.346 136.377 399.707 141.092 391.871 150.521C388.506 155.081 386.824 160.007 386.824 165.297C386.824 168.241 389.026 169.713 393.431 169.713C396.087 169.713 399.861 168.872 404.753 167.189V166.891H404.421L395.324 167.521C395.324 166.946 394.483 166.204 392.8 165.297L393.099 164.998V164.666H391.24V164.035L393.099 163.736V163.438L390.609 163.105V162.475H391.539V162.176H389.978V161.844L390.609 160.914C389.126 160.914 388.384 160.704 388.384 160.283C388.384 158.889 401.278 155.956 427.066 151.484C429.479 151.484 431.261 152.945 432.412 155.867L432.744 156.83C432.744 158.999 431.272 161.301 428.328 163.736C428.328 165.795 423.093 169.99 412.623 176.32C407.708 179.043 402.883 180.404 398.146 180.404H395.324C385.916 180.404 379.619 175.579 376.431 165.928L376.132 163.105V161.213C376.132 153.643 381.998 144.523 393.73 133.854C402.407 127.988 412.368 125.055 423.613 125.055ZM469.646 124.457C469.646 125.21 470.023 125.586 470.775 125.586V126.15H469.912V126.449C470.864 126.449 471.34 126.637 471.34 127.014V127.312H470.211C470.211 127.888 470.775 128.176 471.904 128.176V128.74H471.041V129.006H474.461L477.051 130.434L476.752 130.732V130.998C477.704 130.998 478.18 131.197 478.18 131.596C478.18 132.282 474.66 133.035 467.621 133.854C465.23 133.854 460.682 135.182 453.974 137.838L450.82 144.113H451.119C452.137 143.737 455.081 143.449 459.951 143.25L460.516 144.113L459.652 144.412V144.678C461.18 144.678 461.943 144.866 461.943 145.242L460.516 145.84V146.105H461.08L460.814 146.969C460.814 147.921 461.567 148.684 463.072 149.26V149.525L462.807 149.824V150.09C463.758 150.09 464.234 150.289 464.234 150.688V150.953C464.234 151.529 458.247 153.045 446.271 155.502C444.788 155.502 442.885 158.357 440.56 164.068L461.08 160.648V161.213H461.379L462.807 160.914C463.05 161.866 463.526 162.342 464.234 162.342V163.205C463.769 163.205 463.293 163.493 462.807 164.068H462.209V164.334H463.935V164.932H462.508L462.807 165.197V165.496L462.508 165.762C465.319 165.762 466.835 166.238 467.057 167.189L466.791 167.488C467.743 167.621 468.219 167.909 468.219 168.352C466.536 169.436 460.836 170.853 451.119 172.602C439.719 174.527 434.019 176.243 434.019 177.748C433.754 178.744 432.902 179.596 431.463 180.305H431.164L429.471 178.877H428.873L427.445 179.176C427.445 178.689 426.504 178.213 424.623 177.748L423.76 178.014L423.461 177.748V177.449L423.76 176.586H423.195L422.896 176.885H422.631L422.332 176.586V176.32C423.904 170.676 430.932 154.716 443.416 128.441C443.416 126.538 444.744 125.398 447.4 125.021L458.523 125.32L469.646 124.457ZM500.373 121.701L506.317 122H512.26C513.411 122 514.252 122.531 514.783 123.594L514.451 123.893C515.492 123.959 516.012 124.269 516.012 124.822V125.154H512.592V125.453H513.821V126.084H513.223L513.522 126.416L513.223 126.715V127.346L514.783 127.645V127.977L514.451 128.275V128.607C515.713 128.607 516.344 129.438 516.344 131.098C517.185 131.208 517.606 131.518 517.606 132.027V132.658L499.112 134.85C497.54 134.85 496.289 136.831 495.36 140.793C484.336 162.264 477.751 175.944 475.604 181.832C474.342 183.094 473.302 183.725 472.483 183.725L471.221 182.463C469.981 182.463 469.362 181.943 469.362 180.902L469.03 181.234H468.731C468.686 180.703 467.646 179.762 465.61 178.412L464.647 176.818C464.647 172.613 469.66 161.445 479.688 143.316L482.211 137.373L470.59 139.232C466.207 139.232 463.285 137.251 461.824 133.289L460.895 129.537V128.906C460.895 127.578 461.725 126.327 463.385 125.154H467.469C474.021 125.154 484.989 124.003 500.373 121.701ZM167.665 188.723C173 188.723 176.265 190.305 177.46 193.471C178.146 196.282 178.976 201.86 179.95 210.205L180.249 210.504C180.36 211.81 180.636 212.463 181.079 212.463L190.011 211.334V211.898H190.31L194.759 211.633V212.164L192.8 212.729V213.027H194.759L196.718 212.729V213.293C194.814 214.046 193.331 214.422 192.269 214.422V214.986L193.663 214.688C194.947 215.064 195.589 215.44 195.589 215.816L197.017 215.518C200.735 215.628 202.595 216.005 202.595 216.646L202.296 216.912L204.255 217.477V218.041C201.731 219.347 196.519 220.465 188.616 221.395L183.603 222.225C186.015 231.699 187.222 238.129 187.222 241.516V242.611L186.392 243.475H186.093C185.473 243.475 184.831 243.187 184.167 242.611V243.475H183.603V242.91L182.739 243.475L181.644 242.611L178.854 243.74L176.597 241.516C175.667 240.01 174.272 234.51 172.413 225.014H172.147C160.416 228.245 154.55 230.769 154.55 232.584C153.797 233.049 151.561 235.926 147.843 241.217C146.559 242.722 145.53 243.475 144.755 243.475L144.19 242.08L143.925 242.346H143.659C142.53 241.682 141.966 240.94 141.966 240.121L141.7 240.387H141.136V239.822C140.361 239.822 139.619 239.269 138.911 238.162C138.158 238.162 137.782 237.974 137.782 237.598V235.639C137.782 233.558 140.018 230.116 144.489 225.312C146.393 222.147 149.47 217.764 153.72 212.164L163.216 195.43L165.142 189.818C166.138 189.088 166.979 188.723 167.665 188.723ZM165.44 215.816V216.082C168.606 215.263 170.188 214.71 170.188 214.422L169.358 209.939C168.849 210.161 167.543 212.12 165.44 215.816ZM191.405 211.068H191.97V211.633H191.405V211.068ZM191.704 213.027V213.293H192.269V213.027H191.704ZM245.82 189.055H246.783C252.361 189.055 256.235 191.467 258.404 196.293C257.895 200.698 257.165 202.9 256.213 202.9H255.881C254.575 202.9 252.372 202.27 249.273 201.008L242.998 200.377C231.554 200.377 221.914 205.092 214.078 214.521C210.713 219.081 209.031 224.007 209.031 229.297C209.031 232.241 211.234 233.713 215.638 233.713C218.295 233.713 222.069 232.872 226.961 231.189V230.891H226.629L217.531 231.521C217.531 230.946 216.69 230.204 215.008 229.297L215.306 228.998V228.666H213.447V228.035L215.306 227.736V227.438L212.816 227.105V226.475H213.746V226.176H212.185V225.844L212.816 224.914C211.333 224.914 210.592 224.704 210.592 224.283C210.592 222.889 223.485 219.956 249.273 215.484C251.686 215.484 253.468 216.945 254.619 219.867L254.951 220.83C254.951 222.999 253.479 225.301 250.535 227.736C250.535 229.795 245.3 233.99 234.83 240.32C229.916 243.043 225.09 244.404 220.353 244.404H217.531C208.123 244.404 201.826 239.579 198.638 229.928L198.34 227.105V225.213C198.34 217.643 204.206 208.523 215.937 197.854C224.614 191.988 234.575 189.055 245.82 189.055ZM295.904 187.328H296.237C298.339 187.328 300.464 189.354 302.612 193.404L302.944 193.736V195.23C302.944 196.182 301.35 197.001 298.162 197.688V197.986C303.054 204.051 305.5 209.729 305.5 215.02V216.547C305.5 229.651 299.856 238.074 288.567 241.814C284.715 242.833 281.528 243.342 279.004 243.342H275.485C265.568 243.342 258.429 238.273 254.069 228.135C253.449 228.002 253.028 226.176 252.807 222.656V220.498C252.807 210.67 259.934 201.749 274.19 193.736C283.199 189.464 290.437 187.328 295.904 187.328ZM264.627 223.254V223.553C264.627 227.072 266.863 229.098 271.334 229.629H273.891C280.775 229.629 287.161 225.678 293.049 217.775C293.957 215.695 294.587 212.95 294.942 209.541C294.742 206.708 294.432 204.981 294.012 204.361L294.311 203.465C293.735 200.41 293.315 198.883 293.049 198.883C286.785 199.724 279.546 203.786 271.334 211.068C266.863 215.407 264.627 219.469 264.627 223.254ZM335.131 188.723C340.466 188.723 343.731 190.305 344.926 193.471C345.613 196.282 346.443 201.86 347.417 210.205L347.715 210.504C347.826 211.81 348.103 212.463 348.546 212.463L357.477 211.334V211.898H357.776L362.225 211.633V212.164L360.266 212.729V213.027H362.225L364.184 212.729V213.293C362.281 214.046 360.797 214.422 359.735 214.422V214.986L361.13 214.688C362.413 215.064 363.055 215.44 363.055 215.816L364.483 215.518C368.202 215.628 370.061 216.005 370.061 216.646L369.762 216.912L371.721 217.477V218.041C369.198 219.347 363.985 220.465 356.083 221.395L351.069 222.225C353.482 231.699 354.688 238.129 354.688 241.516V242.611L353.858 243.475H353.559C352.939 243.475 352.297 243.187 351.633 242.611V243.475H351.069V242.91L350.206 243.475L349.11 242.611L346.321 243.74L344.063 241.516C343.133 240.01 341.739 234.51 339.88 225.014H339.614C327.882 228.245 322.016 230.769 322.016 232.584C321.264 233.049 319.028 235.926 315.309 241.217C314.025 242.722 312.996 243.475 312.221 243.475L311.657 242.08L311.391 242.346H311.126C309.997 241.682 309.432 240.94 309.432 240.121L309.167 240.387H308.602V239.822C307.827 239.822 307.086 239.269 306.378 238.162C305.625 238.162 305.249 237.974 305.249 237.598V235.639C305.249 233.558 307.484 230.116 311.956 225.312C313.859 222.147 316.936 217.764 321.186 212.164L330.682 195.43L332.608 189.818C333.604 189.088 334.445 188.723 335.131 188.723ZM332.907 215.816V216.082C336.072 215.263 337.655 214.71 337.655 214.422L336.825 209.939C336.316 210.161 335.01 212.12 332.907 215.816ZM358.872 211.068H359.436V211.633H358.872V211.068ZM359.171 213.027V213.293H359.735V213.027H359.171ZM380.036 184.738H381.796C386.931 186.62 389.499 189.088 389.499 192.143C388.171 194.312 382.847 205.435 373.528 225.512L371.171 229.662L389.499 228.467L391.857 228.766H393.616V229.363H392.753V230.26H394.513V230.857L391.558 232.318L392.155 234.078H393.915L396.571 236.768C396.571 237.299 390.761 238.372 379.14 239.988C374.226 240.984 367.53 242.667 359.052 245.035H358.753C357.668 245.035 355.798 243.452 353.142 240.287V239.988L353.44 239.723L353.142 239.424V236.469C353.142 235.473 354.027 234.288 355.798 232.916C365.095 215.717 371.791 201.141 375.886 189.188L375.587 188.291C376.827 185.923 378.31 184.738 380.036 184.738Z" fill="#FD7819"/>
<path d="M615.482 83.6216C601.893 104.169 574.126 125.271 542.093 107.496L539.415 112.323C543.722 115.254 581.574 140.185 616.8 131.708C624.359 129.824 631.478 126.462 637.748 121.813C644.017 117.165 649.314 111.323 653.332 104.624L677.051 117.786L664.506 35.8396L588.275 68.5246L615.482 83.6216Z" fill="#FD8F40"/>
</svg>
