<svg width="436" height="55" viewBox="0 0 436 55" fill="none" xmlns="http://www.w3.org/2000/svg">
<rect x="1.25" y="38.25" width="15.5" height="15.5" stroke="#9062D4" stroke-width="2.5"/>
<rect x="23.25" y="16.25" width="15.5" height="15.5" stroke="#9062D4" stroke-width="2.5"/>
<rect x="23.25" y="38.25" width="15.5" height="15.5" stroke="#9062D4" stroke-width="2.5"/>
<path d="M88.4609 10.4375H90.9922C98.8516 10.4375 103.93 12.6953 106.227 17.2109C106.93 18.0859 107.281 19 107.281 19.9531V20.1641C107.281 22.5234 104.039 24.9922 97.5547 27.5703V27.7812C100.648 30.5 102.195 32.5391 102.195 33.8984V35.1641C102.195 38.5859 91.5547 43.6641 70.2734 50.3984L65.8438 51.4531L65.6094 51.2422L65.8438 51.0312V50.3984C65.125 50.3984 64.7656 50.2578 64.7656 49.9766L64.5547 49.1328L66.6875 48.2891V48.0781H66.4766L63.7109 48.5V48.0781C64.6953 47.9375 65.1875 47.7266 65.1875 47.4453H64.9766L63.7109 47.8672L63.5 47.6562H63.2891L62.0234 47.8672H61.8125V47.6562L62.2344 47.0234V46.8125H62.0234L60.9688 47.0234L60.7578 46.8125V46.6016C62.0859 45.4609 63.2109 44.8906 64.1328 44.8906L63.7109 42.7812C64.8984 39.875 69.8359 31.9844 78.5234 19.1094C75.8672 19.1094 74.1016 18.4062 73.2266 17C72.6797 16.8438 72.1172 15.8516 71.5391 14.0234C71.5391 12.3203 74.7109 11.2656 81.0547 10.8594L88.4609 10.4375ZM87.4062 22.6953C91.6562 21.2266 95.25 19.75 98.1875 18.2656C98.1875 17.8438 96.5625 17.6328 93.3125 17.6328H90.3594C88.3906 20.5078 87.4062 22.1953 87.4062 22.6953ZM76.625 39.8281V40.0391C83.8438 37.6328 88.9844 35.2344 92.0469 32.8438H88.0391C82.8203 32.8438 80.2109 33.3359 80.2109 34.3203L76.625 39.8281ZM117.969 7.10938H119.211C122.836 8.4375 124.648 10.1797 124.648 12.3359C123.711 13.8672 119.953 21.7188 113.375 35.8906L111.711 38.8203L124.648 37.9766L126.312 38.1875H127.555V38.6094H126.945V39.2422H128.188V39.6641L126.102 40.6953L126.523 41.9375H127.766L129.641 43.8359C129.641 44.2109 125.539 44.9688 117.336 46.1094C113.867 46.8125 109.141 48 103.156 49.6719H102.945C102.18 49.6719 100.859 48.5547 98.9844 46.3203V46.1094L99.1953 45.9219L98.9844 45.7109V43.625C98.9844 42.9219 99.6094 42.0859 100.859 41.1172C107.422 28.9766 112.148 18.6875 115.039 10.25L114.828 9.61719C115.703 7.94531 116.75 7.10938 117.969 7.10938ZM157.789 8.9375H158.023C159.508 8.9375 161.008 10.3672 162.523 13.2266L162.758 13.4609V14.5156C162.758 15.1875 161.633 15.7656 159.383 16.25V16.4609C162.836 20.7422 164.562 24.75 164.562 28.4844V29.5625C164.562 38.8125 160.578 44.7578 152.609 47.3984C149.891 48.1172 147.641 48.4766 145.859 48.4766H143.375C136.375 48.4766 131.336 44.8984 128.258 37.7422C127.82 37.6484 127.523 36.3594 127.367 33.875V32.3516C127.367 25.4141 132.398 19.1172 142.461 13.4609C148.82 10.4453 153.93 8.9375 157.789 8.9375ZM135.711 34.2969V34.5078C135.711 36.9922 137.289 38.4219 140.445 38.7969H142.25C147.109 38.7969 151.617 36.0078 155.773 30.4297C156.414 28.9609 156.859 27.0234 157.109 24.6172C156.969 22.6172 156.75 21.3984 156.453 20.9609L156.664 20.3281C156.258 18.1719 155.961 17.0938 155.773 17.0938C151.352 17.6875 146.242 20.5547 140.445 25.6953C137.289 28.7578 135.711 31.625 135.711 34.2969ZM192.828 10.3438H194.352C198.133 10.3438 200.836 11.4375 202.461 13.625V15.5938C202.461 18.375 201.438 19.7656 199.391 19.7656C197.906 19.3281 196.305 19.1094 194.586 19.1094C183.867 19.1094 176.5 24.2109 172.484 34.4141L172.039 36.6172V37.2734C172.039 39.4766 173.5 40.8594 176.422 41.4219C178.25 41.8594 180.656 42.0781 183.641 42.0781H187.578V42.5234H186.688V42.7344C187.031 42.7344 187.398 43.0234 187.789 43.6016H188V44.2578L185.609 44.4922V44.7031H186.031L185.609 46.0156H186.031V46.4609H185.609V46.6719C186.188 46.6719 186.477 46.9609 186.477 47.5391H186.922L186.688 47.3281V47.1172L186.922 46.8828H188.234V47.3281L188.445 47.5391L188.234 47.7734H187.578V47.9844L188 48.4297H188.656L188.445 48.1953V47.9844L189.102 47.7734L189.758 47.9844C189.758 49.2969 184.656 49.9531 174.453 49.9531C168.016 49.9531 163.492 46.8203 160.883 40.5547V37.6953C160.883 30.9297 165.477 23.7109 174.664 16.0391C180.086 12.2422 186.141 10.3438 192.828 10.3438ZM188 42.9453H189.312V43.3906H188V42.9453ZM211.297 8.9375H211.906C212.75 8.9375 213.977 9.82031 215.586 11.5859L216.195 13.2266V13.625C216.195 14.6875 215.242 16.5312 213.336 19.1562H213.523L231.922 9.75781H232.133C232.133 10.0234 231.93 10.1562 231.523 10.1562V10.3672H231.922L233.352 9.75781L233.562 9.94531V10.1562L233.773 9.94531H234.781C234.781 10.2266 234.578 10.3672 234.172 10.3672L234.383 10.9766L235.812 10.7656L233.164 13.2266L232.531 13.4375V13.625L234.781 13.2266C234.781 13.4609 234.242 13.8047 233.164 14.2578L233.562 14.6562L233.773 14.4453H233.961L234.594 14.6562V14.8672L234.172 15.4766C234.859 15.4766 235.203 15.75 235.203 16.2969L219.266 25.4844V25.6953C220.766 31.3828 221.992 37.7188 222.945 44.7031C223.211 44.7031 223.414 45.5156 223.555 47.1406L221.094 48.1719L220.883 47.9609H220.695L218.445 48.9922C215.305 46.6641 213.734 44.1406 213.734 41.4219L211.086 30.3828H210.875C206.281 32.8828 203.898 34.7969 203.727 36.125L200.445 41.2344C200.102 41.2344 199.492 42.1875 198.617 44.0938H198.219V43.8828L198.406 43.0625V42.8516H198.219L198.008 43.4609L197.797 43.2734H197.586L196.578 44.4922V44.7031H196.766L197.586 43.4609H197.797V43.8828C197.578 44.6953 197.031 45.1016 196.156 45.1016C194.719 47.9453 193.969 49.9219 193.906 51.0312H193.297C193.297 50.4844 193.023 50.2109 192.477 50.2109L191.258 49.8125L191.047 49.6016H190.859L189.828 49.8125C189.828 49.2656 189.555 48.9922 189.008 48.9922L188.398 47.5625C190.445 41.5781 195.352 31.7656 203.117 18.125C206.805 12.3437 209.531 9.28125 211.297 8.9375ZM198.406 42.0312H198.828L199.227 41.2344V41.0234H199.016C198.781 41.0234 198.578 41.3594 198.406 42.0312ZM258.43 10.4375H260.961C268.82 10.4375 273.898 12.6953 276.195 17.2109C276.898 18.0859 277.25 19 277.25 19.9531V20.1641C277.25 22.5234 274.008 24.9922 267.523 27.5703V27.7812C270.617 30.5 272.164 32.5391 272.164 33.8984V35.1641C272.164 38.5859 261.523 43.6641 240.242 50.3984L235.812 51.4531L235.578 51.2422L235.812 51.0312V50.3984C235.094 50.3984 234.734 50.2578 234.734 49.9766L234.523 49.1328L236.656 48.2891V48.0781H236.445L233.68 48.5V48.0781C234.664 47.9375 235.156 47.7266 235.156 47.4453H234.945L233.68 47.8672L233.469 47.6562H233.258L231.992 47.8672H231.781V47.6562L232.203 47.0234V46.8125H231.992L230.938 47.0234L230.727 46.8125V46.6016C232.055 45.4609 233.18 44.8906 234.102 44.8906L233.68 42.7812C234.867 39.875 239.805 31.9844 248.492 19.1094C245.836 19.1094 244.07 18.4062 243.195 17C242.648 16.8438 242.086 15.8516 241.508 14.0234C241.508 12.3203 244.68 11.2656 251.023 10.8594L258.43 10.4375ZM257.375 22.6953C261.625 21.2266 265.219 19.75 268.156 18.2656C268.156 17.8438 266.531 17.6328 263.281 17.6328H260.328C258.359 20.5078 257.375 22.1953 257.375 22.6953ZM246.594 39.8281V40.0391C253.812 37.6328 258.953 35.2344 262.016 32.8438H258.008C252.789 32.8438 250.18 33.3359 250.18 34.3203L246.594 39.8281ZM298.461 9.73438C298.461 10.2656 298.727 10.5312 299.258 10.5312V10.9297H298.648V11.1406C299.32 11.1406 299.656 11.2734 299.656 11.5391V11.75H298.859C298.859 12.1562 299.258 12.3594 300.055 12.3594V12.7578H299.445V12.9453H301.859L303.688 13.9531L303.477 14.1641V14.3516C304.148 14.3516 304.484 14.4922 304.484 14.7734C304.484 15.2578 302 15.7891 297.031 16.3672C295.344 16.3672 292.133 17.3047 287.398 19.1797L285.172 23.6094H285.383C286.102 23.3438 288.18 23.1406 291.617 23L292.016 23.6094L291.406 23.8203V24.0078C292.484 24.0078 293.023 24.1406 293.023 24.4062L292.016 24.8281V25.0156H292.414L292.227 25.625C292.227 26.2969 292.758 26.8359 293.82 27.2422V27.4297L293.633 27.6406V27.8281C294.305 27.8281 294.641 27.9688 294.641 28.25V28.4375C294.641 28.8438 290.414 29.9141 281.961 31.6484C280.914 31.6484 279.57 33.6641 277.93 37.6953L292.414 35.2812V35.6797H292.625L293.633 35.4688C293.805 36.1406 294.141 36.4766 294.641 36.4766V37.0859C294.312 37.0859 293.977 37.2891 293.633 37.6953H293.211V37.8828H294.43V38.3047H293.422L293.633 38.4922V38.7031L293.422 38.8906C295.406 38.8906 296.477 39.2266 296.633 39.8984L296.445 40.1094C297.117 40.2031 297.453 40.4062 297.453 40.7188C296.266 41.4844 292.242 42.4844 285.383 43.7188C277.336 45.0781 273.312 46.2891 273.312 47.3516C273.125 48.0547 272.523 48.6562 271.508 49.1562H271.297L270.102 48.1484H269.68L268.672 48.3594C268.672 48.0156 268.008 47.6797 266.68 47.3516L266.07 47.5391L265.859 47.3516V47.1406L266.07 46.5312H265.672L265.461 46.7422H265.273L265.062 46.5312V46.3438C266.172 42.3594 271.133 31.0938 279.945 12.5469C279.945 11.2031 280.883 10.3984 282.758 10.1328L290.609 10.3438L298.461 9.73438ZM318.758 9.92188C322.523 9.92188 324.828 11.0391 325.672 13.2734C326.156 15.2578 326.742 19.1953 327.43 25.0859L327.641 25.2969C327.719 26.2188 327.914 26.6797 328.227 26.6797L334.531 25.8828V26.2812H334.742L337.883 26.0938V26.4688L336.5 26.8672V27.0781H337.883L339.266 26.8672V27.2656C337.922 27.7969 336.875 28.0625 336.125 28.0625V28.4609L337.109 28.25C338.016 28.5156 338.469 28.7812 338.469 29.0469L339.477 28.8359C342.102 28.9141 343.414 29.1797 343.414 29.6328L343.203 29.8203L344.586 30.2188V30.6172C342.805 31.5391 339.125 32.3281 333.547 32.9844L330.008 33.5703C331.711 40.2578 332.562 44.7969 332.562 47.1875V47.9609L331.977 48.5703H331.766C331.328 48.5703 330.875 48.3672 330.406 47.9609V48.5703H330.008V48.1719L329.398 48.5703L328.625 47.9609L326.656 48.7578L325.062 47.1875C324.406 46.125 323.422 42.2422 322.109 35.5391H321.922C313.641 37.8203 309.5 39.6016 309.5 40.8828C308.969 41.2109 307.391 43.2422 304.766 46.9766C303.859 48.0391 303.133 48.5703 302.586 48.5703L302.188 47.5859L302 47.7734H301.812C301.016 47.3047 300.617 46.7812 300.617 46.2031L300.43 46.3906H300.031V45.9922C299.484 45.9922 298.961 45.6016 298.461 44.8203C297.93 44.8203 297.664 44.6875 297.664 44.4219V43.0391C297.664 41.5703 299.242 39.1406 302.398 35.75C303.742 33.5156 305.914 30.4219 308.914 26.4688L315.617 14.6562L316.977 10.6953C317.68 10.1797 318.273 9.92188 318.758 9.92188ZM317.188 29.0469V29.2344C319.422 28.6562 320.539 28.2656 320.539 28.0625L319.953 24.8984C319.594 25.0547 318.672 26.4375 317.188 29.0469ZM335.516 25.6953H335.914V26.0938H335.516V25.6953ZM335.727 27.0781V27.2656H336.125V27.0781H335.727ZM352.883 8.30469H354.711C363.82 8.30469 369.195 11.2969 370.836 17.2812L371.047 18.5234V19.1328C371.047 20.9297 366.961 23.9219 358.789 28.1094C360.836 36.7812 361.859 42.8359 361.859 46.2734L362.07 46.4844V46.6719L361.859 47.3047L362.07 49.1328L361.859 49.3438H361.461C361.461 48.7969 361.32 48.5234 361.039 48.5234C361.039 48.9297 360.906 49.1328 360.641 49.1328H360.219L360.031 48.9219H359.82C359.617 49.4688 359.414 49.7422 359.211 49.7422L358.18 49.5312L357.781 49.9531C357.688 49.2656 357.344 48.9219 356.75 48.9219C354.578 43.8594 352.68 38.0078 351.055 31.3672L341.867 34.4375C341.023 36.3594 340.344 37.4453 339.828 37.6953L339.617 38.7266H339.008L339.828 36.4766V36.2656H339.617L338.586 38.5156L339.008 38.9375C338.492 38.9375 337.469 40.3594 335.938 43.2031C335.75 43.2188 335.344 44.1094 334.719 45.875C334.438 45.875 333.758 47.2344 332.68 49.9531H332.469C332.469 49.3281 331.789 48.7812 330.43 48.3125L330.031 48.7344C330.031 48.4531 329.82 48.3125 329.398 48.3125L328.789 48.5234C328.492 47.7891 328.086 47.3828 327.57 47.3047V46.6719C327.57 43.375 331.312 34.2578 338.797 19.3203C335.938 17.3828 334.508 15.8203 334.508 14.6328V13.625C334.617 12.9062 337.133 11.6797 342.055 9.94531C342.742 8.85156 346.352 8.30469 352.883 8.30469ZM346.344 24.4297H346.766C354.938 20.9297 359.898 18.1406 361.648 16.0625V15.8516L357.57 15.6641H357.172C352 15.6641 349.414 16.2734 349.414 17.4922C347.805 21.6016 346.781 23.9141 346.344 24.4297Z" fill="url(#paint0_linear_356_5238)"/>
<rect x="434.75" y="31.75" width="15.5" height="15.5" transform="rotate(180 434.75 31.75)" stroke="#152230" stroke-width="2.5"/>
<rect x="412.75" y="53.75" width="15.5" height="15.5" transform="rotate(180 412.75 53.75)" stroke="#152230" stroke-width="2.5"/>
<rect x="412.75" y="31.75" width="15.5" height="15.5" transform="rotate(180 412.75 31.75)" stroke="#152230" stroke-width="2.5"/>
<defs>
<linearGradient id="paint0_linear_356_5238" x1="72" y1="27.5" x2="364" y2="27.5" gradientUnits="userSpaceOnUse">
<stop stop-color="#9062D4"/>
<stop offset="1" stop-color="#152230"/>
</linearGradient>
</defs>
</svg>
